<svg xmlns="http://www.w3.org/2000/svg" version="1.1" xmlns:xlink="http://www.w3.org/1999/xlink" xmlns:svgjs="http://svgjs.dev/svgjs" width="1000" height="166" viewBox="0 0 1000 166"><g transform="matrix(1,0,0,1,-0.6060606060606233,0.364239301507979)"><svg viewBox="0 0 396 66" data-background-color="#398378" preserveAspectRatio="xMidYMid meet" height="166" width="1000" xmlns="http://www.w3.org/2000/svg" xmlns:xlink="http://www.w3.org/1999/xlink"><g id="tight-bounds" transform="matrix(1,0,0,1,0.2400000000000091,-0.14481803553931627)"><svg viewBox="0 0 395.52 66.28963607107863" height="66.28963607107863" width="395.52"><g><svg viewBox="0 0 517.5593757231715 86.74358480446928" height="66.28963607107863" width="395.52"><g><rect width="5.660366133897654" height="63.08053743016759" x="101.56129719687152" y="11.831523687150845" fill="#31c48d" opacity="1" stroke-width="0" stroke="transparent" fill-opacity="1" class="rect-a$-0" data-fill-palette-color="primary" rx="1%" id="a$-0" data-palette-color="#31c48d"></rect></g><g transform="matrix(1,0,0,1,122.03937572317142,11.988440446927378)"><svg viewBox="0 0 395.52000000000004 62.766703910614524" height="62.766703910614524" width="395.52000000000004"><g id="textblocktransform"><svg viewBox="0 0 395.52000000000004 62.766703910614524" height="62.766703910614524" width="395.52000000000004" id="textblock"><g><svg viewBox="0 0 395.52000000000004 62.766703910614524" height="62.766703910614524" width="395.52000000000004"><g transform="matrix(1,0,0,1,0,0)"><svg width="395.52000000000004" viewBox="0.5 -34.3 291.38 45.449999999999996" height="62.766703910614524" data-palette-color="#31c48d"><g class="undefined-text-0" data-fill-palette-color="primary" id="text-0"><path d="M0.5-33.85L24.1-33.85 23.35-29.35 14.95-29.35 14.95 0 9.05 0 9.05-29.35 0.5-29.35 0.5-33.85ZM28.15 0L28.15-33.85Q28.5-33.85 29.75-33.88 31-33.9 32.55-33.9 34.1-33.9 35.65-33.93 37.2-33.95 38.2-33.95L38.2-33.95Q44.4-33.95 47.25-31.53 50.1-29.1 50.1-24.7L50.1-24.7Q50.1-21.8 48.65-19.55 47.2-17.3 43.9-16.3L43.9-16.3Q45.3-15.5 46.4-14.1 47.5-12.7 48.55-10.68 49.6-8.65 50.7-5.98 51.8-3.3 53.25 0L53.25 0 46.8 0Q45.1-3.95 43.82-6.75 42.55-9.55 41.35-11.3 40.15-13.05 38.77-13.85 37.4-14.65 35.55-14.65L35.55-14.65 34.1-14.65 34.1 0 28.15 0ZM34.1-29.7L34.1-19 37.95-19Q40.75-19 42.27-20.25 43.8-21.5 43.8-23.95L43.8-23.95Q43.8-25.05 43.5-26.1 43.2-27.15 42.47-27.95 41.75-28.75 40.52-29.23 39.3-29.7 37.45-29.7L37.45-29.7 34.1-29.7ZM53.1 0L66.09-33.85 70.8-33.85 83.84 0 77.5 0 74.4-8.85 62.2-8.85 59 0 53.1 0ZM63.8-13.25L72.84-13.25Q71.25-17.75 70.09-21.43 68.95-25.1 68.34-27.2L68.34-27.2Q67.65-24.95 66.5-21.3 65.34-17.65 63.8-13.25L63.8-13.25ZM113.14-33.85L100.49 0 95.84 0 83.19-33.85 89.54-33.85 93.74-21.75Q95.34-17.05 96.49-13.48 97.64-9.9 98.24-8L98.24-8Q98.79-9.9 99.92-13.38 101.04-16.85 102.74-21.65L102.74-21.65 107.09-33.85 113.14-33.85ZM116.19 0L116.19-33.85 136.29-33.85 136.29-29.35 122.14-29.35 122.14-19.9 133.79-19.9 133.04-15.35 122.14-15.35 122.14-4.5 137.04-4.5 137.04 0 116.19 0ZM141.84 0L141.84-33.85 147.79-33.85 147.79-4.5 160.44-4.5 160.44 0 141.84 0ZM179.28 11.15L176.99 7.2Q179.24 6.1 180.44 4.78 181.63 3.45 182.21 2.08 182.78 0.7 182.86-0.68 182.94-2.05 182.94-3.25L182.94-3.25 182.94-3.95Q181.78-1.85 179.59-0.73 177.38 0.4 174.49 0.4L174.49 0.4Q171.34 0.4 169.09-0.8 166.84-2 165.38-4.23 163.94-6.45 163.26-9.55 162.59-12.65 162.59-16.45L162.59-16.45Q162.59-20.35 163.49-23.63 164.38-26.9 166.21-29.28 168.03-31.65 170.81-32.98 173.59-34.3 177.38-34.3L177.38-34.3Q180.74-34.3 183.01-33.2 185.28-32.1 186.59-30.75L186.59-30.75 183.69-26.95Q182.38-28.25 180.51-28.98 178.63-29.7 176.69-29.7L176.69-29.7Q174.53-29.7 173.09-28.7 171.63-27.7 170.74-25.98 169.84-24.25 169.44-21.93 169.03-19.6 169.03-16.95L169.03-16.95Q169.03-14.1 169.41-11.78 169.78-9.45 170.56-7.78 171.34-6.1 172.59-5.18 173.84-4.25 175.63-4.25L175.63-4.25Q176.78-4.25 177.99-4.78 179.19-5.3 180.16-6.28 181.13-7.25 181.74-8.65 182.34-10.05 182.34-11.85L182.34-11.85 182.34-16.4 188.19-16.4 188.19-1.35Q188.19 1.7 187.36 3.75 186.53 5.8 185.26 7.18 183.99 8.55 182.41 9.47 180.84 10.4 179.28 11.15L179.28 11.15ZM193.68-33.85L199.58-33.85 199.58-12.9Q199.58-8.25 201.53-6.28 203.48-4.3 206.83-4.3L206.83-4.3Q210.23-4.3 211.86-6.58 213.48-8.85 213.48-12.9L213.48-12.9 213.48-33.85 219.43-33.85 219.43-12.45Q219.43-9.85 218.76-7.55 218.08-5.25 216.53-3.5 214.98-1.75 212.43-0.73 209.88 0.3 206.18 0.3L206.18 0.3Q202.63 0.3 200.26-0.73 197.88-1.75 196.41-3.5 194.93-5.25 194.31-7.55 193.68-9.85 193.68-12.45L193.68-12.45 193.68-33.85ZM225.93 0L225.93-33.85 231.88-33.85 231.88 0 225.93 0ZM238.88 0L238.88-33.85Q239.23-33.85 240.38-33.88 241.53-33.9 242.98-33.9 244.43-33.9 245.98-33.93 247.53-33.95 248.68-33.95L248.68-33.95Q257.18-33.95 261.28-29.73 265.38-25.5 265.38-17.15L265.38-17.15Q265.38-8.8 261.18-4.35 256.98 0.1 248.03 0.1L248.03 0.1Q246.48 0.1 245 0.08 243.53 0.05 242.3 0.05 241.08 0.05 240.18 0.03 239.28 0 238.88 0L238.88 0ZM247.98-29.5Q246.83-29.5 246.05-29.48 245.28-29.45 244.83-29.45L244.83-29.45 244.83-4.4Q245.38-4.35 246.25-4.35 247.13-4.35 248.78-4.35L248.78-4.35Q254.03-4.35 256.48-7.43 258.93-10.5 258.93-16.6L258.93-16.6Q258.93-19.5 258.35-21.88 257.78-24.25 256.45-25.95 255.13-27.65 253.05-28.58 250.98-29.5 247.98-29.5L247.98-29.5ZM271.02 0L271.02-33.85 291.13-33.85 291.13-29.35 276.97-29.35 276.97-19.9 288.63-19.9 287.88-15.35 276.97-15.35 276.97-4.5 291.88-4.5 291.88 0 271.02 0Z" fill="#31c48d" data-fill-palette-color="primary"></path></g></svg></g></svg></g></svg></g></svg></g><g><svg viewBox="0 0 86.74358480446928 86.74358480446928" height="86.74358480446928" width="86.74358480446928"><g><svg xmlns="http://www.w3.org/2000/svg" xmlns:xlink="http://www.w3.org/1999/xlink" version="1.1" x="0" y="0" viewBox="0 0 100 100" enable-background="new 0 0 100 100" xml:space="preserve" height="86.74358480446928" width="86.74358480446928" class="icon-icon-0" data-fill-palette-color="accent" id="icon-0"><g fill="#c9efc7" data-fill-palette-color="accent"><path fill="#c9efc7" d="M50 0C22.43 0 0 22.43 0 50s22.43 50 50 50 50-22.43 50-50S77.57 0 50 0zM84.24 21.362c-0.515 1.485-2.57 2.992-5.862 4.32-1.31-3.139-2.878-6.08-4.697-8.756-2.444-3.596-5.225-6.549-8.239-8.825C72.823 10.823 79.283 15.441 84.24 21.362zM75.85 26.591c-3.593 1.146-8.194 2.094-13.565 2.679-0.521-4.174-1.2-8.044-2.03-11.468-1.276-5.265-2.835-9.153-4.657-11.675C64.148 8.473 71.439 16.082 75.85 26.591zM50 5.357c4.187 0 7.814 9.814 9.613 24.165-3.01 0.249-6.223 0.389-9.613 0.389s-6.604-0.14-9.613-0.389C42.186 15.172 45.813 5.357 50 5.357zM39.746 17.802c-0.83 3.424-1.509 7.294-2.03 11.468-5.371-0.585-9.973-1.532-13.565-2.679 4.41-10.509 11.7-18.118 20.252-20.464C42.581 8.648 41.022 12.537 39.746 17.802zM34.559 8.102c-3.015 2.276-5.795 5.229-8.24 8.825-1.82 2.676-3.388 5.617-4.697 8.756-3.292-1.328-5.348-2.835-5.862-4.32C20.717 15.441 27.177 10.823 34.559 8.102zM19.933 82.998c2.347 0.862 5.033 1.6 7.943 2.206 2.046 2.646 4.289 4.888 6.683 6.694C29.104 89.887 24.149 86.841 19.933 82.998zM32.011 85.957c2.923 0.462 5.991 0.807 9.103 1.034 0.975 2.905 2.073 5.199 3.289 6.882C39.83 92.618 35.617 89.863 32.011 85.957zM50 94.643c-2.217 0-4.277-2.756-5.994-7.476 2.004 0.099 4.011 0.149 5.994 0.149 2.04 0 4.038-0.048 5.988-0.137C54.273 91.892 52.215 94.643 50 94.643zM58.877 87.018c3.192-0.221 6.224-0.561 9.057-1.003-3.593 3.874-7.786 6.61-12.337 7.858C56.809 92.195 57.904 89.912 58.877 87.018zM65.441 91.898c2.377-1.794 4.603-4.017 6.638-6.638 2.967-0.621 5.641-1.366 7.944-2.221C75.817 86.863 70.878 89.894 65.441 91.898zM86.366 75.877l-0.042-0.022c-1.185 2.19-5.433 4.417-11.906 6.082 3.898-6.118 6.561-13.489 7.806-21.463 0.376-0.105 0.756-0.209 1.122-0.318 4.854-1.443 8.538-3.143 10.997-5.042C93.466 62.798 90.638 69.885 86.366 75.877zM89.301 55.025l-3.062 1.994c-0.278 0.182-4.121 2.656-9.624 4.793 0.944-0.193 1.876-0.394 2.776-0.608-1.479 8.421-4.591 15.874-8.806 21.597-3.236 0.638-6.884 1.141-10.868 1.458 0.183-0.664 0.362-1.346 0.536-2.061 1.203-4.964 2.089-10.863 2.63-17.279-0.438 0.019-0.876 0.03-1.315 0.03h-1.38c-0.662 7.683-1.812 14.412-3.308 19.502-2.206 0.121-4.502 0.188-6.881 0.188-2.384 0-4.677-0.064-6.88-0.183-1.496-5.09-2.646-11.82-3.308-19.506h-2.692c0.542 6.404 1.426 12.293 2.627 17.248 0.174 0.719 0.355 1.404 0.54 2.072-3.987-0.31-7.622-0.803-10.842-1.429-3.638-4.927-6.449-11.146-8.111-18.159-1-0.079-1.933-0.177-2.805-0.293 1.432 6.488 3.821 12.486 7.088 17.599-6.793-1.73-11.104-4.092-12.074-6.413l-0.095 0.039c-4.167-5.936-6.926-12.929-7.79-20.501 0.682 0.526 1.466 1.035 2.335 1.53 0.066-0.99 0.366-1.865 0.833-2.629-1.612-0.972-2.777-1.98-3.441-2.993C5.375 50.68 5.357 50.343 5.357 50c0-9.867 3.208-18.983 8.63-26.373 1.255 1.748 3.596 3.253 6.679 4.503-2.162 5.965-3.409 12.565-3.651 19.428 0.798-0.45 1.708-0.851 2.738-1.16 0.34-6.23 1.54-12.103 3.439-17.35 4.035 1.311 8.961 2.266 14.221 2.852-0.457 4.327-0.746 8.941-0.857 13.705 0.933 0.005 1.833 0.013 2.677 0.02 0.112-4.743 0.404-9.268 0.848-13.459 3.26 0.281 6.608 0.424 9.919 0.424s6.659-0.143 9.919-0.424c0.212 2.006 0.39 4.09 0.529 6.236h2.672c-0.144-2.218-0.312-4.402-0.534-6.502 5.261-0.586 10.187-1.541 14.222-2.852 1.115 3.08 1.99 6.376 2.595 9.831h2.722c-0.624-3.743-1.558-7.349-2.79-10.749 3.084-1.25 5.424-2.755 6.68-4.503 5.421 7.39 8.629 16.506 8.629 26.373 0 0.343-0.018 0.68-0.025 1.021C93.718 52.392 91.9 53.755 89.301 55.025z" data-fill-palette-color="accent"></path><path fill="#c9efc7" d="M28.987 60.897c13.854 0 25.381-0.002 32.58-0.003 11.298 0 22.46-7.27 22.46-7.27l-3.605-0.816 3.655-9.877h-5.079l-9.3 8.529L60.4 50.558l4.64-8.102h-6.508l-13.867 7.287c0 0-16.292-0.272-21.398 0.107-5.373 0.397-7.414 4.236-7.414 4.236s-3.827 0.809-3.828 2.965C12.024 59.207 16.598 60.896 28.987 60.897z" data-fill-palette-color="accent"></path></g></svg></g></svg></g></svg></g><defs></defs></svg><rect width="395.52" height="66.28963607107863" fill="none" stroke="none" visibility="hidden"></rect></g></svg></g></svg>